<svg xmlns="http://www.w3.org/2000/svg" version="1.1" xmlns:xlink="http://www.w3.org/1999/xlink" xmlns:svgjs="http://svgjs.dev/svgjs" width="1500" height="1500" viewBox="0 0 1500 1500"><g transform="matrix(1,0,0,1,0.9192122683397201,0.6072874493926292)"><svg viewBox="0 0 247 247" data-background-color="#000000" preserveAspectRatio="xMidYMid meet" height="1500" width="1500" xmlns="http://www.w3.org/2000/svg" xmlns:xlink="http://www.w3.org/1999/xlink"><g id="tight-bounds" transform="matrix(1,0,0,1,-0.15136362018660066,-0.09999999999999432)"><svg viewBox="0 0 247.3027272403732 247.2" height="247.2" width="247.3027272403732"><g><svg viewBox="0 0 397.4975999999999 397.3324832139513" height="247.2" width="247.3027272403732"><g></g><g transform="matrix(1,0,0,1,0.9887999999999693,261.0894297788368)"><svg viewBox="0 0 395.52 136.24305343511452" height="136.24305343511452" width="395.52"><g id="textblocktransform"><svg viewBox="0 0 395.52 136.24305343511452" height="136.24305343511452" width="395.52" id="textblock"><g><svg viewBox="0 0 395.52 136.24305343511452" height="136.24305343511452" width="395.52"><g transform="matrix(1,0,0,1,0,0)"><svg width="395.52" viewBox="2.2 -35.5 104.8 36.1" height="136.24305343511452" data-palette-color="url(#9248f91b-7835-4783-bbf7-0a7a8a5a20a2)"></svg></g></svg></g></svg></g></svg></g><g transform="matrix(1,0,0,1,76.53311999999998,0)"><svg viewBox="0 0 244.43135999999996 184.47546045173087" height="184.47546045173087" width="244.43135999999996"><g><svg xmlns="http://www.w3.org/2000/svg" xmlns:xlink="http://www.w3.org/1999/xlink" version="1.1" x="8" y="0" viewBox="1.63 13.938 96.739 78.12399999999998" enable-background="new 0 0 100 100" xml:space="preserve" height="184.47546045173087" width="228.43135999999996" class="icon-icon-0" data-fill-palette-color="accent" id="icon-0"></svg></g></svg></g><g></g></svg></g><defs></defs><mask id="de8ea9b2-2ddb-40b5-a333-253ab81e3711"><g id="SvgjsG1153"><svg viewBox="0 0 247.3027272403732 247.2" height="247.2" width="247.3027272403732"><g><svg viewBox="0 0 397.4975999999999 397.3324832139513" height="247.2" width="247.3027272403732"><g><rect width="397.4975999999999" height="12.286539161609774" x="0" y="216.63917553447897" fill="black" opacity="1" stroke-width="0" stroke="transparent" fill-opacity="1" class="rect-qz-0" rx="1%" id="SvgjsRect1152" data-palette-color="url(#1ea89a98-309b-49fe-a0e9-274948202e18)"></rect></g><g transform="matrix(1,0,0,1,0.9887999999999693,261.0894297788368)"><svg viewBox="0 0 395.52 136.24305343511452" height="136.24305343511452" width="395.52"><g id="SvgjsG1151"><svg viewBox="0 0 395.52 136.24305343511452" height="136.24305343511452" width="395.52" id="SvgjsSvg1150"><g><svg viewBox="0 0 395.52 136.24305343511452" height="136.24305343511452" width="395.52"><g transform="matrix(1,0,0,1,0,0)"><svg width="395.52" viewBox="2.2 -35.5 104.8 36.1" height="136.24305343511452" data-palette-color="url(#9248f91b-7835-4783-bbf7-0a7a8a5a20a2)"><path d="M39.53 0.6Q37.65 0.6 36.5-0.73 35.35-2.05 35.35-4.33 35.35-6.6 37.43-15.65 39.5-24.7 39.5-27.2 39.5-29.7 37.55-29.7L37.55-29.7Q34.85-29.7 31.6-27.3L31.6-27.3Q31.25-24.6 29.55-17.88 27.85-11.15 27.28-7.93 26.7-4.7 26.7-2.95 26.7-1.2 26.75-0.8L26.75-0.8Q24.8 0.2 19.8 0.2L19.8 0.2 18.85 0.2Q18.85-4 21.2-14.1L21.2-14.1Q23.6-24.4 23.6-27.05 23.6-29.7 21.75-29.7L21.75-29.7Q19.05-29.7 15.45-27.1L15.45-27.1Q14.9-24.35 13.4-18.15L13.4-18.15Q10.05-3.95 10.05-0.8L10.05-0.8Q8.1 0.2 3.15 0.2L3.15 0.2 2.2 0.2Q2.4-2.05 4.85-13.03 7.3-24 7.9-29.45L7.9-29.45Q7.9-30.25 7.38-31.38 6.85-32.5 6.3-33.2L6.3-33.2 5.8-33.9 5.95-34.65Q8.75-35.5 15.6-35.5L15.6-35.5Q16.25-34.3 16.25-32.45L16.25-32.45Q16.25-32.05 16.05-30.35L16.05-30.35Q21.8-35.5 26.35-35.5L26.35-35.5Q28.4-35.5 29.8-34.1 31.2-32.7 31.6-30.45L31.6-30.45Q37.55-35.5 41.7-35.5L41.7-35.5Q44.3-35.5 45.9-33.8 47.5-32.1 47.5-29.05 47.5-26 45.38-17.43 43.25-8.85 43.25-5.45L43.25-5.45Q43.25-4 43.75-4L43.75-4Q44.2-4 46.2-5L46.2-5 46.9-5.3 47.9-3.45Q45.75-1.6 43.58-0.5 41.4 0.6 39.53 0.6ZM11.35-19.25L11.4-19.5Q11.35-19.4 11.35-19.25L11.35-19.25ZM52 0.25L52 0.25Q51.05 0.25 50.7 0.2L50.7 0.2Q51.05-2.7 53.77-14.53 56.5-26.35 56.5-29.5L56.5-29.5Q56.5-30.1 55.8-31.08 55.1-32.05 54.4-32.7L54.4-32.7 53.75-33.4 53.9-34.2Q60.75-35.5 68.4-35.5L68.4-35.5Q77.6-35.5 77.6-28.25L77.6-28.25Q77.6-24.7 75.82-21.78 74.05-18.85 70.3-17.2L70.3-17.2Q73.1-7.85 75.1-5.1L75.1-5.1Q76-3.95 76.5-3.95L76.5-3.95Q77.4-3.95 79.3-4.85L79.3-4.85 79.9-5.15 81.05-3.3Q79.2-1.6 76.77-0.5 74.35 0.6 72.22 0.6 70.1 0.6 68.72-1.23 67.35-3.05 66.22-6.6 65.1-10.15 63.95-15.7L63.95-15.7Q62.35-15.6 61.5-15.6L61.5-15.6Q58.95-4.65 58.7-0.8L58.7-0.8Q56.55 0.25 52 0.25ZM62.25-19L63.45-19Q66.45-19 68.17-21.68 69.9-24.35 69.9-28.05L69.9-28.05Q69.9-30 69.2-31.2 68.5-32.4 67.1-32.4L67.1-32.4Q66.5-32.4 65.67-32.23 64.85-32.05 64.85-32L64.85-32Q64.05-26.85 62.25-19L62.25-19ZM91.9-35.25L91.9-35.25 101.7-34.95 106.85-35.05Q107-34.3 107-33.05 107-31.8 106.62-31.25 106.25-30.7 105.35-30.7 104.45-30.7 101.52-30.95 98.6-31.2 97.2-31.2L97.2-31.2 95.4-31.1Q95.2-29.2 93-18.95L93-18.95Q96.8-19.3 99.35-19.3 101.9-19.3 103.3-18.9L103.3-18.9Q103.2-16.8 102.4-15.3L102.4-15.3Q100.25-15.75 97.3-15.75 94.35-15.75 92.3-15.45L92.3-15.45Q90.45-6.4 90.45-1.7L90.45-1.7 90.45-0.85Q88.65 0.15 82.85 0.15L82.85 0.15 82.35 0.15Q82.35-3.25 84.67-14 87-24.75 87.5-29.45L87.5-29.45Q87.5-30.25 87-31.38 86.5-32.5 85.95-33.2L85.95-33.2 85.45-33.9 85.6-34.65Q88.3-35.2 91.9-35.25Z" opacity="1" transform="matrix(1,0,0,1,0,0)" fill="white" class="wordmark-text-0" id="SvgjsPath1149"></path></svg></g></svg></g></svg></g></svg></g><g transform="matrix(1,0,0,1,76.53311999999998,0)"><svg viewBox="0 0 244.43135999999996 184.47546045173087" height="184.47546045173087" width="244.43135999999996"><g><svg xmlns="http://www.w3.org/2000/svg" xmlns:xlink="http://www.w3.org/1999/xlink" version="1.1" x="8" y="0" viewBox="1.63 13.938 96.739 78.12399999999998" enable-background="new 0 0 100 100" xml:space="preserve" height="184.47546045173087" width="228.43135999999996" class="icon-icon-0" data-fill-palette-color="accent" id="SvgjsSvg1148"><polygon points="42.021,89.823 98.369,53.589 82.566,61.219 82.574,61.292 82.527,61.238 82.264,61.365 82.281,61.389 " fill="black"></polygon><polygon points="79.395,61.174 38.895,57.391 36.811,91.25 " fill="black"></polygon><polygon points="3.71,38.712 34.918,92.062 37.066,57.146 " fill="black"></polygon><polygon points="95.209,45.172 80.775,27.29 79.232,32.516 95.928,46.175 " fill="black"></polygon><polygon points="98.135,50.979 79.758,35.645 82.281,58.632 " fill="black"></polygon><polygon points="61.512,33.498 79.758,54.504 77.424,33.356 " fill="black"></polygon><polygon points="59.756,34.836 39.467,54.979 80.432,58.808 " fill="black"></polygon><polygon points="58.445,33.191 36.674,27.365 38.974,52.971 " fill="black"></polygon><polygon points="37.133,54.393 34.822,28.537 6.776,37.639 " fill="black"></polygon><polygon points="8.923,35.031 34.527,26.292 25.659,19.867 " fill="black"></polygon><polygon points="1.63,26.184 3.25,37.485 20.957,21.022 " fill="black"></polygon><polygon points="28.355,14.604 7.837,21.987 26.101,17.109 " fill="black"></polygon><polygon points="36.751,24.86 60.131,31.196 77.148,30.907 78.672,25.749 67.951,19.853 48.173,14.486 32.256,13.938 28.073,18.586   " fill="black"></polygon></svg></g></svg></g><g></g></svg></g><defs><mask></mask></defs></svg><rect width="247.3027272403732" height="247.2" fill="black" stroke="none" visibility="hidden"></rect></g></mask><linearGradient x1="0" x2="1" y1="0.548" y2="0.55" id="9248f91b-7835-4783-bbf7-0a7a8a5a20a2"><stop stop-color="#ff6cab" offset="0"></stop><stop stop-color="#7366ff" offset="1"></stop></linearGradient><rect width="247.3027272403732" height="247.2" fill="url(#9248f91b-7835-4783-bbf7-0a7a8a5a20a2)" mask="url(#de8ea9b2-2ddb-40b5-a333-253ab81e3711)" data-fill-palette-color="primary"></rect><mask id="8d473de1-8844-4d5d-b82a-1a3216cd0c0d"><g id="SvgjsG1164"><svg viewBox="0 0 247.3027272403732 247.2" height="247.2" width="247.3027272403732"><g><svg viewBox="0 0 397.4975999999999 397.3324832139513" height="247.2" width="247.3027272403732"><g><rect width="397.4975999999999" height="12.286539161609774" x="0" y="216.63917553447897" fill="white" opacity="1" stroke-width="0" stroke="transparent" fill-opacity="1" class="rect-qz-0" rx="1%" id="SvgjsRect1163" data-palette-color="url(#1ea89a98-309b-49fe-a0e9-274948202e18)"></rect></g><g transform="matrix(1,0,0,1,0.9887999999999693,261.0894297788368)"><svg viewBox="0 0 395.52 136.24305343511452" height="136.24305343511452" width="395.52"><g id="SvgjsG1162"><svg viewBox="0 0 395.52 136.24305343511452" height="136.24305343511452" width="395.52" id="SvgjsSvg1161"><g><svg viewBox="0 0 395.52 136.24305343511452" height="136.24305343511452" width="395.52"><g transform="matrix(1,0,0,1,0,0)"><svg width="395.52" viewBox="2.2 -35.5 104.8 36.1" height="136.24305343511452" data-palette-color="url(#9248f91b-7835-4783-bbf7-0a7a8a5a20a2)"></svg></g></svg></g></svg></g></svg></g><g transform="matrix(1,0,0,1,76.53311999999998,0)"><svg viewBox="0 0 244.43135999999996 184.47546045173087" height="184.47546045173087" width="244.43135999999996"><g><svg xmlns="http://www.w3.org/2000/svg" xmlns:xlink="http://www.w3.org/1999/xlink" version="1.1" x="8" y="0" viewBox="1.63 13.938 96.739 78.12399999999998" enable-background="new 0 0 100 100" xml:space="preserve" height="184.47546045173087" width="228.43135999999996" class="icon-icon-0" data-fill-palette-color="accent" id="SvgjsSvg1160"><polygon points="42.021,89.823 98.369,53.589 82.566,61.219 82.574,61.292 82.527,61.238 82.264,61.365 82.281,61.389 " fill="black"></polygon><polygon points="79.395,61.174 38.895,57.391 36.811,91.25 " fill="black"></polygon><polygon points="3.71,38.712 34.918,92.062 37.066,57.146 " fill="black"></polygon><polygon points="95.209,45.172 80.775,27.29 79.232,32.516 95.928,46.175 " fill="black"></polygon><polygon points="98.135,50.979 79.758,35.645 82.281,58.632 " fill="black"></polygon><polygon points="61.512,33.498 79.758,54.504 77.424,33.356 " fill="black"></polygon><polygon points="59.756,34.836 39.467,54.979 80.432,58.808 " fill="black"></polygon><polygon points="58.445,33.191 36.674,27.365 38.974,52.971 " fill="black"></polygon><polygon points="37.133,54.393 34.822,28.537 6.776,37.639 " fill="black"></polygon><polygon points="8.923,35.031 34.527,26.292 25.659,19.867 " fill="black"></polygon><polygon points="1.63,26.184 3.25,37.485 20.957,21.022 " fill="black"></polygon><polygon points="28.355,14.604 7.837,21.987 26.101,17.109 " fill="black"></polygon><polygon points="36.751,24.86 60.131,31.196 77.148,30.907 78.672,25.749 67.951,19.853 48.173,14.486 32.256,13.938 28.073,18.586   " fill="black"></polygon></svg></g></svg></g><g></g></svg></g><defs><mask></mask></defs><mask><g id="SvgjsG1159"><svg viewBox="0 0 247.3027272403732 247.2" height="247.2" width="247.3027272403732"><g><svg viewBox="0 0 397.4975999999999 397.3324832139513" height="247.2" width="247.3027272403732"><g><rect width="397.4975999999999" height="12.286539161609774" x="0" y="216.63917553447897" fill="black" opacity="1" stroke-width="0" stroke="transparent" fill-opacity="1" class="rect-qz-0" rx="1%" id="SvgjsRect1158" data-palette-color="url(#1ea89a98-309b-49fe-a0e9-274948202e18)"></rect></g><g transform="matrix(1,0,0,1,0.9887999999999693,261.0894297788368)"><svg viewBox="0 0 395.52 136.24305343511452" height="136.24305343511452" width="395.52"><g id="SvgjsG1157"><svg viewBox="0 0 395.52 136.24305343511452" height="136.24305343511452" width="395.52" id="SvgjsSvg1156"><g><svg viewBox="0 0 395.52 136.24305343511452" height="136.24305343511452" width="395.52"><g transform="matrix(1,0,0,1,0,0)"><svg width="395.52" viewBox="2.2 -35.5 104.8 36.1" height="136.24305343511452" data-palette-color="url(#9248f91b-7835-4783-bbf7-0a7a8a5a20a2)"><path d="M39.53 0.6Q37.65 0.6 36.5-0.73 35.35-2.05 35.35-4.33 35.35-6.6 37.43-15.65 39.5-24.7 39.5-27.2 39.5-29.7 37.55-29.7L37.55-29.7Q34.85-29.7 31.6-27.3L31.6-27.3Q31.25-24.6 29.55-17.88 27.85-11.15 27.28-7.93 26.7-4.7 26.7-2.95 26.7-1.2 26.75-0.8L26.75-0.8Q24.8 0.2 19.8 0.2L19.8 0.2 18.85 0.2Q18.85-4 21.2-14.1L21.2-14.1Q23.6-24.4 23.6-27.05 23.6-29.7 21.75-29.7L21.75-29.7Q19.05-29.7 15.45-27.1L15.45-27.1Q14.9-24.35 13.4-18.15L13.4-18.15Q10.05-3.95 10.05-0.8L10.05-0.8Q8.1 0.2 3.15 0.2L3.15 0.2 2.2 0.2Q2.4-2.05 4.85-13.03 7.3-24 7.9-29.45L7.9-29.45Q7.9-30.25 7.38-31.38 6.85-32.5 6.3-33.2L6.3-33.2 5.8-33.9 5.95-34.65Q8.75-35.5 15.6-35.5L15.6-35.5Q16.25-34.3 16.25-32.45L16.25-32.45Q16.25-32.05 16.05-30.35L16.05-30.35Q21.8-35.5 26.35-35.5L26.35-35.5Q28.4-35.5 29.8-34.1 31.2-32.7 31.6-30.45L31.6-30.45Q37.55-35.5 41.7-35.5L41.7-35.5Q44.3-35.5 45.9-33.8 47.5-32.1 47.5-29.05 47.5-26 45.38-17.43 43.25-8.85 43.25-5.45L43.25-5.45Q43.25-4 43.75-4L43.75-4Q44.2-4 46.2-5L46.2-5 46.9-5.3 47.9-3.45Q45.75-1.6 43.58-0.5 41.4 0.6 39.53 0.6ZM11.35-19.25L11.4-19.5Q11.35-19.4 11.35-19.25L11.35-19.25ZM52 0.25L52 0.25Q51.05 0.25 50.7 0.2L50.7 0.2Q51.05-2.7 53.77-14.53 56.5-26.35 56.5-29.5L56.5-29.5Q56.5-30.1 55.8-31.08 55.1-32.05 54.4-32.7L54.4-32.7 53.75-33.4 53.9-34.2Q60.75-35.5 68.4-35.5L68.4-35.5Q77.6-35.5 77.6-28.25L77.6-28.25Q77.6-24.7 75.82-21.78 74.05-18.85 70.3-17.2L70.3-17.2Q73.1-7.85 75.1-5.1L75.1-5.1Q76-3.95 76.5-3.95L76.5-3.95Q77.4-3.95 79.3-4.85L79.3-4.85 79.9-5.15 81.05-3.3Q79.2-1.6 76.77-0.5 74.35 0.6 72.22 0.6 70.1 0.6 68.72-1.23 67.35-3.05 66.22-6.6 65.1-10.15 63.95-15.7L63.95-15.7Q62.35-15.6 61.5-15.6L61.5-15.6Q58.95-4.65 58.7-0.8L58.7-0.8Q56.55 0.25 52 0.25ZM62.25-19L63.45-19Q66.45-19 68.17-21.68 69.9-24.35 69.9-28.05L69.9-28.05Q69.9-30 69.2-31.2 68.5-32.4 67.1-32.4L67.1-32.4Q66.5-32.4 65.67-32.23 64.85-32.05 64.85-32L64.85-32Q64.05-26.85 62.25-19L62.25-19ZM91.9-35.25L91.9-35.25 101.7-34.95 106.85-35.05Q107-34.3 107-33.05 107-31.8 106.62-31.25 106.25-30.7 105.35-30.7 104.45-30.7 101.52-30.95 98.6-31.2 97.2-31.2L97.2-31.2 95.4-31.1Q95.2-29.2 93-18.95L93-18.95Q96.8-19.3 99.35-19.3 101.9-19.3 103.3-18.9L103.3-18.9Q103.2-16.8 102.4-15.3L102.4-15.3Q100.25-15.75 97.3-15.75 94.35-15.75 92.3-15.45L92.3-15.45Q90.45-6.4 90.45-1.7L90.45-1.7 90.45-0.85Q88.65 0.15 82.85 0.15L82.85 0.15 82.35 0.15Q82.35-3.25 84.67-14 87-24.75 87.5-29.45L87.5-29.45Q87.5-30.25 87-31.38 86.5-32.5 85.95-33.2L85.95-33.2 85.45-33.9 85.6-34.65Q88.3-35.2 91.9-35.25Z" opacity="1" transform="matrix(1,0,0,1,0,0)" fill="black" class="wordmark-text-0" id="SvgjsPath1155"></path></svg></g></svg></g></svg></g></svg></g><g transform="matrix(1,0,0,1,76.53311999999998,0)"><svg viewBox="0 0 244.43135999999996 184.47546045173087" height="184.47546045173087" width="244.43135999999996"><g><svg xmlns="http://www.w3.org/2000/svg" xmlns:xlink="http://www.w3.org/1999/xlink" version="1.1" x="8" y="0" viewBox="1.63 13.938 96.739 78.12399999999998" enable-background="new 0 0 100 100" xml:space="preserve" height="184.47546045173087" width="228.43135999999996" class="icon-icon-0" data-fill-palette-color="accent" id="SvgjsSvg1154"><polygon points="42.021,89.823 98.369,53.589 82.566,61.219 82.574,61.292 82.527,61.238 82.264,61.365 82.281,61.389 " fill="black"></polygon><polygon points="79.395,61.174 38.895,57.391 36.811,91.25 " fill="black"></polygon><polygon points="3.71,38.712 34.918,92.062 37.066,57.146 " fill="black"></polygon><polygon points="95.209,45.172 80.775,27.29 79.232,32.516 95.928,46.175 " fill="black"></polygon><polygon points="98.135,50.979 79.758,35.645 82.281,58.632 " fill="black"></polygon><polygon points="61.512,33.498 79.758,54.504 77.424,33.356 " fill="black"></polygon><polygon points="59.756,34.836 39.467,54.979 80.432,58.808 " fill="black"></polygon><polygon points="58.445,33.191 36.674,27.365 38.974,52.971 " fill="black"></polygon><polygon points="37.133,54.393 34.822,28.537 6.776,37.639 " fill="black"></polygon><polygon points="8.923,35.031 34.527,26.292 25.659,19.867 " fill="black"></polygon><polygon points="1.63,26.184 3.25,37.485 20.957,21.022 " fill="black"></polygon><polygon points="28.355,14.604 7.837,21.987 26.101,17.109 " fill="black"></polygon><polygon points="36.751,24.86 60.131,31.196 77.148,30.907 78.672,25.749 67.951,19.853 48.173,14.486 32.256,13.938 28.073,18.586   " fill="black"></polygon></svg></g></svg></g><g></g></svg></g><defs><mask></mask></defs></svg><rect width="247.3027272403732" height="247.2" fill="black" stroke="none" visibility="hidden"></rect></g></mask></svg><rect width="247.3027272403732" height="247.2" fill="black" stroke="none" visibility="hidden"></rect></g></mask><linearGradient x1="0" x2="1" y1="0.548" y2="0.55" id="1ea89a98-309b-49fe-a0e9-274948202e18"><stop stop-color="#ff6cab" offset="0"></stop><stop stop-color="#7366ff" offset="1"></stop></linearGradient><rect width="247.3027272403732" height="247.2" fill="url(#1ea89a98-309b-49fe-a0e9-274948202e18)" mask="url(#8d473de1-8844-4d5d-b82a-1a3216cd0c0d)" data-fill-palette-color="secondary"></rect><mask id="c90f7de6-9d7c-45fa-9742-5fb37e2d0fba"><g id="SvgjsG1185"><svg viewBox="0 0 247.3027272403732 247.2" height="247.2" width="247.3027272403732"><g><svg viewBox="0 0 397.4975999999999 397.3324832139513" height="247.2" width="247.3027272403732"><g></g><g transform="matrix(1,0,0,1,0.9887999999999693,261.0894297788368)"><svg viewBox="0 0 395.52 136.24305343511452" height="136.24305343511452" width="395.52"><g id="SvgjsG1184"><svg viewBox="0 0 395.52 136.24305343511452" height="136.24305343511452" width="395.52" id="SvgjsSvg1183"><g><svg viewBox="0 0 395.52 136.24305343511452" height="136.24305343511452" width="395.52"><g transform="matrix(1,0,0,1,0,0)"><svg width="395.52" viewBox="2.2 -35.5 104.8 36.1" height="136.24305343511452" data-palette-color="url(#9248f91b-7835-4783-bbf7-0a7a8a5a20a2)"></svg></g></svg></g></svg></g></svg></g><g transform="matrix(1,0,0,1,76.53311999999998,0)"><svg viewBox="0 0 244.43135999999996 184.47546045173087" height="184.47546045173087" width="244.43135999999996"><g><svg xmlns="http://www.w3.org/2000/svg" xmlns:xlink="http://www.w3.org/1999/xlink" version="1.1" x="8" y="0" viewBox="1.63 13.938 96.739 78.12399999999998" enable-background="new 0 0 100 100" xml:space="preserve" height="184.47546045173087" width="228.43135999999996" class="icon-icon-0" data-fill-palette-color="accent" id="SvgjsSvg1182"><polygon points="42.021,89.823 98.369,53.589 82.566,61.219 82.574,61.292 82.527,61.238 82.264,61.365 82.281,61.389 " fill="white"></polygon><polygon points="79.395,61.174 38.895,57.391 36.811,91.25 " fill="white"></polygon><polygon points="3.71,38.712 34.918,92.062 37.066,57.146 " fill="white"></polygon><polygon points="95.209,45.172 80.775,27.29 79.232,32.516 95.928,46.175 " fill="white"></polygon><polygon points="98.135,50.979 79.758,35.645 82.281,58.632 " fill="white"></polygon><polygon points="61.512,33.498 79.758,54.504 77.424,33.356 " fill="white"></polygon><polygon points="59.756,34.836 39.467,54.979 80.432,58.808 " fill="white"></polygon><polygon points="58.445,33.191 36.674,27.365 38.974,52.971 " fill="white"></polygon><polygon points="37.133,54.393 34.822,28.537 6.776,37.639 " fill="white"></polygon><polygon points="8.923,35.031 34.527,26.292 25.659,19.867 " fill="white"></polygon><polygon points="1.63,26.184 3.25,37.485 20.957,21.022 " fill="white"></polygon><polygon points="28.355,14.604 7.837,21.987 26.101,17.109 " fill="white"></polygon><polygon points="36.751,24.86 60.131,31.196 77.148,30.907 78.672,25.749 67.951,19.853 48.173,14.486 32.256,13.938 28.073,18.586   " fill="white"></polygon></svg></g></svg></g><g></g></svg></g><defs><mask></mask></defs><mask><g id="SvgjsG1181"><svg viewBox="0 0 247.3027272403732 247.2" height="247.2" width="247.3027272403732"><g><svg viewBox="0 0 397.4975999999999 397.3324832139513" height="247.2" width="247.3027272403732"><g><rect width="397.4975999999999" height="12.286539161609774" x="0" y="216.63917553447897" fill="black" opacity="1" stroke-width="0" stroke="transparent" fill-opacity="1" class="rect-qz-0" rx="1%" id="SvgjsRect1180" data-palette-color="url(#1ea89a98-309b-49fe-a0e9-274948202e18)"></rect></g><g transform="matrix(1,0,0,1,0.9887999999999693,261.0894297788368)"><svg viewBox="0 0 395.52 136.24305343511452" height="136.24305343511452" width="395.52"><g id="SvgjsG1179"><svg viewBox="0 0 395.52 136.24305343511452" height="136.24305343511452" width="395.52" id="SvgjsSvg1178"><g><svg viewBox="0 0 395.52 136.24305343511452" height="136.24305343511452" width="395.52"><g transform="matrix(1,0,0,1,0,0)"><svg width="395.52" viewBox="2.2 -35.5 104.8 36.1" height="136.24305343511452" data-palette-color="url(#9248f91b-7835-4783-bbf7-0a7a8a5a20a2)"><path d="M39.53 0.6Q37.65 0.6 36.5-0.73 35.35-2.05 35.35-4.33 35.35-6.6 37.43-15.65 39.5-24.7 39.5-27.2 39.5-29.7 37.55-29.7L37.55-29.7Q34.85-29.7 31.6-27.3L31.6-27.3Q31.25-24.6 29.55-17.88 27.85-11.15 27.28-7.93 26.7-4.7 26.7-2.95 26.7-1.2 26.75-0.8L26.75-0.8Q24.8 0.2 19.8 0.2L19.8 0.2 18.85 0.2Q18.85-4 21.2-14.1L21.2-14.1Q23.6-24.4 23.6-27.05 23.6-29.7 21.75-29.7L21.75-29.7Q19.05-29.7 15.45-27.1L15.45-27.1Q14.9-24.35 13.4-18.15L13.4-18.15Q10.05-3.95 10.05-0.8L10.05-0.8Q8.1 0.2 3.15 0.2L3.15 0.2 2.2 0.2Q2.4-2.05 4.85-13.03 7.3-24 7.9-29.45L7.9-29.45Q7.9-30.25 7.38-31.38 6.85-32.5 6.3-33.2L6.3-33.2 5.8-33.9 5.95-34.65Q8.75-35.5 15.6-35.5L15.6-35.5Q16.25-34.3 16.25-32.45L16.25-32.45Q16.25-32.05 16.05-30.35L16.05-30.35Q21.8-35.5 26.35-35.5L26.35-35.5Q28.4-35.5 29.8-34.1 31.2-32.7 31.6-30.45L31.6-30.45Q37.55-35.5 41.7-35.5L41.7-35.5Q44.3-35.5 45.9-33.8 47.5-32.1 47.5-29.05 47.5-26 45.38-17.43 43.25-8.85 43.25-5.45L43.25-5.45Q43.25-4 43.75-4L43.75-4Q44.2-4 46.2-5L46.2-5 46.9-5.3 47.9-3.45Q45.75-1.6 43.58-0.5 41.4 0.6 39.53 0.6ZM11.35-19.25L11.4-19.5Q11.35-19.4 11.35-19.25L11.35-19.25ZM52 0.25L52 0.25Q51.05 0.25 50.7 0.2L50.7 0.2Q51.05-2.7 53.77-14.53 56.5-26.35 56.5-29.5L56.5-29.5Q56.5-30.1 55.8-31.08 55.1-32.05 54.4-32.7L54.4-32.7 53.75-33.4 53.9-34.2Q60.75-35.5 68.4-35.5L68.4-35.5Q77.6-35.5 77.6-28.25L77.6-28.25Q77.6-24.7 75.82-21.78 74.05-18.85 70.3-17.2L70.3-17.2Q73.1-7.85 75.1-5.1L75.1-5.1Q76-3.95 76.5-3.95L76.5-3.95Q77.4-3.95 79.3-4.85L79.3-4.85 79.9-5.15 81.05-3.3Q79.2-1.6 76.77-0.5 74.35 0.6 72.22 0.6 70.1 0.6 68.72-1.23 67.35-3.05 66.22-6.6 65.1-10.15 63.95-15.7L63.95-15.7Q62.35-15.6 61.5-15.6L61.5-15.6Q58.95-4.65 58.7-0.8L58.7-0.8Q56.55 0.25 52 0.25ZM62.25-19L63.45-19Q66.45-19 68.17-21.68 69.9-24.35 69.9-28.05L69.9-28.05Q69.9-30 69.2-31.2 68.5-32.4 67.1-32.4L67.1-32.4Q66.5-32.4 65.67-32.23 64.85-32.05 64.85-32L64.85-32Q64.05-26.85 62.25-19L62.25-19ZM91.9-35.25L91.9-35.25 101.7-34.95 106.85-35.05Q107-34.3 107-33.05 107-31.8 106.62-31.25 106.25-30.7 105.35-30.7 104.45-30.7 101.52-30.95 98.6-31.2 97.2-31.2L97.2-31.2 95.4-31.1Q95.2-29.2 93-18.95L93-18.95Q96.8-19.3 99.35-19.3 101.9-19.3 103.3-18.9L103.3-18.9Q103.2-16.8 102.4-15.3L102.4-15.3Q100.25-15.75 97.3-15.75 94.35-15.75 92.3-15.45L92.3-15.45Q90.45-6.4 90.45-1.7L90.45-1.7 90.45-0.85Q88.65 0.15 82.85 0.15L82.85 0.15 82.35 0.15Q82.35-3.25 84.67-14 87-24.75 87.5-29.45L87.5-29.45Q87.5-30.25 87-31.38 86.5-32.5 85.95-33.2L85.95-33.2 85.45-33.9 85.6-34.65Q88.3-35.2 91.9-35.25Z" opacity="1" transform="matrix(1,0,0,1,0,0)" fill="black" class="wordmark-text-0" id="SvgjsPath1177"></path></svg></g></svg></g></svg></g></svg></g><g transform="matrix(1,0,0,1,76.53311999999998,0)"><svg viewBox="0 0 244.43135999999996 184.47546045173087" height="184.47546045173087" width="244.43135999999996"><g><svg xmlns="http://www.w3.org/2000/svg" xmlns:xlink="http://www.w3.org/1999/xlink" version="1.1" x="8" y="0" viewBox="1.63 13.938 96.739 78.12399999999998" enable-background="new 0 0 100 100" xml:space="preserve" height="184.47546045173087" width="228.43135999999996" class="icon-icon-0" data-fill-palette-color="accent" id="SvgjsSvg1176"><polygon points="42.021,89.823 98.369,53.589 82.566,61.219 82.574,61.292 82.527,61.238 82.264,61.365 82.281,61.389 " fill="black"></polygon><polygon points="79.395,61.174 38.895,57.391 36.811,91.25 " fill="black"></polygon><polygon points="3.71,38.712 34.918,92.062 37.066,57.146 " fill="black"></polygon><polygon points="95.209,45.172 80.775,27.29 79.232,32.516 95.928,46.175 " fill="black"></polygon><polygon points="98.135,50.979 79.758,35.645 82.281,58.632 " fill="black"></polygon><polygon points="61.512,33.498 79.758,54.504 77.424,33.356 " fill="black"></polygon><polygon points="59.756,34.836 39.467,54.979 80.432,58.808 " fill="black"></polygon><polygon points="58.445,33.191 36.674,27.365 38.974,52.971 " fill="black"></polygon><polygon points="37.133,54.393 34.822,28.537 6.776,37.639 " fill="black"></polygon><polygon points="8.923,35.031 34.527,26.292 25.659,19.867 " fill="black"></polygon><polygon points="1.63,26.184 3.25,37.485 20.957,21.022 " fill="black"></polygon><polygon points="28.355,14.604 7.837,21.987 26.101,17.109 " fill="black"></polygon><polygon points="36.751,24.86 60.131,31.196 77.148,30.907 78.672,25.749 67.951,19.853 48.173,14.486 32.256,13.938 28.073,18.586   " fill="black"></polygon></svg></g></svg></g><g></g></svg></g><defs><mask></mask></defs></svg><rect width="247.3027272403732" height="247.2" fill="black" stroke="none" visibility="hidden"></rect></g></mask><mask><g id="SvgjsG1175"><svg viewBox="0 0 247.3027272403732 247.2" height="247.2" width="247.3027272403732"><g><svg viewBox="0 0 397.4975999999999 397.3324832139513" height="247.2" width="247.3027272403732"><g><rect width="397.4975999999999" height="12.286539161609774" x="0" y="216.63917553447897" fill="black" opacity="1" stroke-width="0" stroke="transparent" fill-opacity="1" class="rect-qz-0" rx="1%" id="SvgjsRect1174" data-palette-color="url(#1ea89a98-309b-49fe-a0e9-274948202e18)"></rect></g><g transform="matrix(1,0,0,1,0.9887999999999693,261.0894297788368)"><svg viewBox="0 0 395.52 136.24305343511452" height="136.24305343511452" width="395.52"><g id="SvgjsG1173"><svg viewBox="0 0 395.52 136.24305343511452" height="136.24305343511452" width="395.52" id="SvgjsSvg1172"><g><svg viewBox="0 0 395.52 136.24305343511452" height="136.24305343511452" width="395.52"><g transform="matrix(1,0,0,1,0,0)"><svg width="395.52" viewBox="2.2 -35.5 104.8 36.1" height="136.24305343511452" data-palette-color="url(#9248f91b-7835-4783-bbf7-0a7a8a5a20a2)"></svg></g></svg></g></svg></g></svg></g><g transform="matrix(1,0,0,1,76.53311999999998,0)"><svg viewBox="0 0 244.43135999999996 184.47546045173087" height="184.47546045173087" width="244.43135999999996"><g><svg xmlns="http://www.w3.org/2000/svg" xmlns:xlink="http://www.w3.org/1999/xlink" version="1.1" x="8" y="0" viewBox="1.63 13.938 96.739 78.12399999999998" enable-background="new 0 0 100 100" xml:space="preserve" height="184.47546045173087" width="228.43135999999996" class="icon-icon-0" data-fill-palette-color="accent" id="SvgjsSvg1171"><polygon points="42.021,89.823 98.369,53.589 82.566,61.219 82.574,61.292 82.527,61.238 82.264,61.365 82.281,61.389 " fill="black"></polygon><polygon points="79.395,61.174 38.895,57.391 36.811,91.25 " fill="black"></polygon><polygon points="3.71,38.712 34.918,92.062 37.066,57.146 " fill="black"></polygon><polygon points="95.209,45.172 80.775,27.29 79.232,32.516 95.928,46.175 " fill="black"></polygon><polygon points="98.135,50.979 79.758,35.645 82.281,58.632 " fill="black"></polygon><polygon points="61.512,33.498 79.758,54.504 77.424,33.356 " fill="black"></polygon><polygon points="59.756,34.836 39.467,54.979 80.432,58.808 " fill="black"></polygon><polygon points="58.445,33.191 36.674,27.365 38.974,52.971 " fill="black"></polygon><polygon points="37.133,54.393 34.822,28.537 6.776,37.639 " fill="black"></polygon><polygon points="8.923,35.031 34.527,26.292 25.659,19.867 " fill="black"></polygon><polygon points="1.63,26.184 3.25,37.485 20.957,21.022 " fill="black"></polygon><polygon points="28.355,14.604 7.837,21.987 26.101,17.109 " fill="black"></polygon><polygon points="36.751,24.86 60.131,31.196 77.148,30.907 78.672,25.749 67.951,19.853 48.173,14.486 32.256,13.938 28.073,18.586   " fill="black"></polygon></svg></g></svg></g><g></g></svg></g><defs><mask></mask></defs><mask><g id="SvgjsG1170"><svg viewBox="0 0 247.3027272403732 247.2" height="247.2" width="247.3027272403732"><g><svg viewBox="0 0 397.4975999999999 397.3324832139513" height="247.2" width="247.3027272403732"><g><rect width="397.4975999999999" height="12.286539161609774" x="0" y="216.63917553447897" fill="black" opacity="1" stroke-width="0" stroke="transparent" fill-opacity="1" class="rect-qz-0" rx="1%" id="SvgjsRect1169" data-palette-color="url(#1ea89a98-309b-49fe-a0e9-274948202e18)"></rect></g><g transform="matrix(1,0,0,1,0.9887999999999693,261.0894297788368)"><svg viewBox="0 0 395.52 136.24305343511452" height="136.24305343511452" width="395.52"><g id="SvgjsG1168"><svg viewBox="0 0 395.52 136.24305343511452" height="136.24305343511452" width="395.52" id="SvgjsSvg1167"><g><svg viewBox="0 0 395.52 136.24305343511452" height="136.24305343511452" width="395.52"><g transform="matrix(1,0,0,1,0,0)"><svg width="395.52" viewBox="2.2 -35.5 104.8 36.1" height="136.24305343511452" data-palette-color="url(#9248f91b-7835-4783-bbf7-0a7a8a5a20a2)"><path d="M39.53 0.6Q37.65 0.6 36.5-0.73 35.35-2.05 35.35-4.33 35.35-6.6 37.43-15.65 39.5-24.7 39.5-27.2 39.5-29.7 37.55-29.7L37.55-29.7Q34.85-29.7 31.6-27.3L31.6-27.3Q31.25-24.6 29.55-17.88 27.85-11.15 27.28-7.93 26.7-4.7 26.7-2.95 26.7-1.2 26.75-0.8L26.75-0.8Q24.8 0.2 19.8 0.2L19.8 0.2 18.85 0.2Q18.85-4 21.2-14.1L21.2-14.1Q23.6-24.4 23.6-27.05 23.6-29.7 21.75-29.7L21.75-29.7Q19.05-29.7 15.45-27.1L15.45-27.1Q14.9-24.35 13.4-18.15L13.4-18.15Q10.05-3.95 10.05-0.8L10.05-0.8Q8.1 0.2 3.15 0.2L3.15 0.2 2.2 0.2Q2.4-2.05 4.85-13.03 7.3-24 7.9-29.45L7.9-29.45Q7.9-30.25 7.38-31.38 6.85-32.5 6.3-33.2L6.3-33.2 5.8-33.9 5.95-34.65Q8.75-35.5 15.6-35.5L15.6-35.5Q16.25-34.3 16.25-32.45L16.25-32.45Q16.25-32.05 16.05-30.35L16.05-30.35Q21.8-35.5 26.35-35.5L26.35-35.5Q28.4-35.5 29.8-34.1 31.2-32.7 31.6-30.45L31.6-30.45Q37.55-35.5 41.7-35.5L41.7-35.5Q44.3-35.5 45.9-33.8 47.5-32.1 47.5-29.05 47.5-26 45.38-17.43 43.25-8.85 43.25-5.45L43.25-5.45Q43.25-4 43.75-4L43.75-4Q44.2-4 46.2-5L46.2-5 46.9-5.3 47.9-3.45Q45.75-1.6 43.58-0.5 41.4 0.6 39.53 0.6ZM11.35-19.25L11.4-19.5Q11.35-19.4 11.35-19.25L11.35-19.25ZM52 0.25L52 0.25Q51.05 0.25 50.7 0.2L50.7 0.2Q51.05-2.7 53.77-14.53 56.5-26.35 56.5-29.5L56.5-29.5Q56.5-30.1 55.8-31.08 55.1-32.05 54.4-32.7L54.4-32.7 53.75-33.4 53.9-34.2Q60.75-35.5 68.4-35.5L68.4-35.5Q77.6-35.5 77.6-28.25L77.6-28.25Q77.6-24.7 75.82-21.78 74.05-18.85 70.3-17.2L70.3-17.2Q73.1-7.85 75.1-5.1L75.1-5.1Q76-3.95 76.5-3.95L76.5-3.95Q77.4-3.95 79.3-4.85L79.3-4.85 79.9-5.15 81.05-3.3Q79.2-1.6 76.77-0.5 74.35 0.6 72.22 0.6 70.1 0.6 68.72-1.23 67.35-3.05 66.22-6.6 65.1-10.15 63.95-15.7L63.95-15.7Q62.35-15.6 61.5-15.6L61.5-15.6Q58.95-4.65 58.7-0.8L58.7-0.8Q56.55 0.25 52 0.25ZM62.25-19L63.45-19Q66.45-19 68.17-21.68 69.9-24.35 69.9-28.05L69.9-28.05Q69.9-30 69.2-31.2 68.5-32.4 67.1-32.4L67.1-32.4Q66.5-32.4 65.67-32.23 64.85-32.05 64.85-32L64.85-32Q64.05-26.85 62.25-19L62.25-19ZM91.9-35.25L91.9-35.25 101.7-34.95 106.85-35.05Q107-34.3 107-33.05 107-31.8 106.62-31.25 106.25-30.7 105.35-30.7 104.45-30.7 101.52-30.95 98.6-31.2 97.2-31.2L97.2-31.2 95.4-31.1Q95.2-29.2 93-18.95L93-18.95Q96.8-19.3 99.35-19.3 101.9-19.3 103.3-18.9L103.3-18.9Q103.2-16.8 102.4-15.3L102.4-15.3Q100.25-15.75 97.3-15.75 94.35-15.75 92.3-15.45L92.3-15.45Q90.45-6.4 90.45-1.7L90.45-1.7 90.45-0.85Q88.65 0.15 82.85 0.15L82.85 0.15 82.35 0.15Q82.35-3.25 84.67-14 87-24.75 87.5-29.45L87.5-29.45Q87.5-30.25 87-31.38 86.5-32.5 85.95-33.2L85.95-33.2 85.45-33.9 85.6-34.65Q88.3-35.2 91.9-35.25Z" opacity="1" transform="matrix(1,0,0,1,0,0)" fill="black" class="wordmark-text-0" id="SvgjsPath1166"></path></svg></g></svg></g></svg></g></svg></g><g transform="matrix(1,0,0,1,76.53311999999998,0)"><svg viewBox="0 0 244.43135999999996 184.47546045173087" height="184.47546045173087" width="244.43135999999996"><g><svg xmlns="http://www.w3.org/2000/svg" xmlns:xlink="http://www.w3.org/1999/xlink" version="1.1" x="8" y="0" viewBox="1.63 13.938 96.739 78.12399999999998" enable-background="new 0 0 100 100" xml:space="preserve" height="184.47546045173087" width="228.43135999999996" class="icon-icon-0" data-fill-palette-color="accent" id="SvgjsSvg1165"><polygon points="42.021,89.823 98.369,53.589 82.566,61.219 82.574,61.292 82.527,61.238 82.264,61.365 82.281,61.389 " fill="black"></polygon><polygon points="79.395,61.174 38.895,57.391 36.811,91.25 " fill="black"></polygon><polygon points="3.71,38.712 34.918,92.062 37.066,57.146 " fill="black"></polygon><polygon points="95.209,45.172 80.775,27.29 79.232,32.516 95.928,46.175 " fill="black"></polygon><polygon points="98.135,50.979 79.758,35.645 82.281,58.632 " fill="black"></polygon><polygon points="61.512,33.498 79.758,54.504 77.424,33.356 " fill="black"></polygon><polygon points="59.756,34.836 39.467,54.979 80.432,58.808 " fill="black"></polygon><polygon points="58.445,33.191 36.674,27.365 38.974,52.971 " fill="black"></polygon><polygon points="37.133,54.393 34.822,28.537 6.776,37.639 " fill="black"></polygon><polygon points="8.923,35.031 34.527,26.292 25.659,19.867 " fill="black"></polygon><polygon points="1.63,26.184 3.25,37.485 20.957,21.022 " fill="black"></polygon><polygon points="28.355,14.604 7.837,21.987 26.101,17.109 " fill="black"></polygon><polygon points="36.751,24.86 60.131,31.196 77.148,30.907 78.672,25.749 67.951,19.853 48.173,14.486 32.256,13.938 28.073,18.586   " fill="black"></polygon></svg></g></svg></g><g></g></svg></g><defs><mask></mask></defs></svg><rect width="247.3027272403732" height="247.2" fill="black" stroke="none" visibility="hidden"></rect></g></mask></svg><rect width="247.3027272403732" height="247.2" fill="black" stroke="none" visibility="hidden"></rect></g></mask></svg><rect width="247.3027272403732" height="247.2" fill="black" stroke="none" visibility="hidden"></rect></g></mask><linearGradient x1="0" x2="1" y1="0.548" y2="0.55" id="3a68fb79-b12d-49e6-a2f6-5ed902fdda09"><stop stop-color="#ff6cab" offset="0"></stop><stop stop-color="#7366ff" offset="1"></stop></linearGradient><rect width="247.3027272403732" height="247.2" fill="url(#3a68fb79-b12d-49e6-a2f6-5ed902fdda09)" mask="url(#c90f7de6-9d7c-45fa-9742-5fb37e2d0fba)" data-fill-palette-color="accent"></rect></svg><rect width="247.3027272403732" height="247.2" fill="none" stroke="none" visibility="hidden"></rect></g></svg></g></svg>